# xmcd CD database file
# Copyright (C) 1995-1998 Ti Kan
#
# Track frame offsets:
#	150
#	30579
#	43167
#	50328
#	67296
#	79632
#	107226
#	120624
#	136527
#	147120
#	161028
#	182484
#	195942
#	207429
#	225672
#	251883
#	269505
#	305853
#
# Disc length: 4233 seconds
#
# Revision: 1
# Processed by: cddbd v1.4b41PL1 Copyright (c) Steve Scherf et al.
# Submitted via: CDex 1.30Release
#
DISCID=06108712
DTITLE=Patti Page - Live at Carnegie Hall (The 50th Anniversary Concert)
DYEAR=1998
DGENRE=Country
TTITLE0=Person Who Used to Be Me/A Brand New Me
TTITLE1=With My Eyes Wide Open
TTITLE2=It's a Wonderful World
TTITLE3=Can You Feel the Love Tonight
TTITLE4=Ain't No Sunchine/You Are My Sunshine
TTITLE5=Movie Medley [In the Wee Small Hours - The Nearness of You - When I Fa
TTITLE5=ll In Love]
TTITLE6=Old Cape Cod
TTITLE7=Release Me (And Let Me Love Again)
TTITLE8=Go On Home
TTITLE9=Less Than the Song
TTITLE10=Unchained Melody
TTITLE11=The More I See You
TTITLE12=Allegheny Moon
TTITLE13=A Foggy Day
TTITLE14=I Stayed Too Long at the Fair
TTITLE15=Detour
TTITLE16=Hits Medley [(How Much Is That) - Doggie in the Window - You Belong t
TTITLE16=o Me - Changing Partners - I Went to Your Wedding - Would I Love You - 
TTITLE16=Hush...Hush, Sweet Charlotte - Mockin' Bird Hill - Cross Over the Bri
TTITLE16=dge]
TTITLE17=Tennessee Waltz
EXTD=YEAR: 1998 ID3G:   2
EXTT0=
EXTT1=
EXTT2=
EXTT3=
EXTT4=
EXTT5=
EXTT6=
EXTT7=
EXTT8=
EXTT9=
EXTT10=
EXTT11=
EXTT12=
EXTT13=
EXTT14=
EXTT15=
EXTT16=
EXTT17=
PLAYORDER=
